<?xml version="1.0" encoding="UTF-8" standalone="no"?>
<svg
   width="50"
   height="50"
   viewBox="0 0 72 88"
   fill="none"
   version="1.1"
   id="svg4"
   sodipodi:docname="0FU.svg"
   inkscape:version="1.3.2 (091e20e, 2023-11-25, custom)"
   xmlns:inkscape="http://www.inkscape.org/namespaces/inkscape"
   xmlns:sodipodi="http://sodipodi.sourceforge.net/DTD/sodipodi-0.dtd"
   xmlns="http://www.w3.org/2000/svg"
   xmlns:svg="http://www.w3.org/2000/svg">
  <sodipodi:namedview
     id="namedview4"
     pagecolor="#ffffff"
     bordercolor="#000000"
     borderopacity="0.25"
     inkscape:showpageshadow="2"
     inkscape:pageopacity="0.0"
     inkscape:pagecheckerboard="0"
     inkscape:deskcolor="#d1d1d1"
     inkscape:zoom="15.42"
     inkscape:cx="25.032425"
     inkscape:cy="1.5888457"
     inkscape:window-width="1920"
     inkscape:window-height="1129"
     inkscape:window-x="-8"
     inkscape:window-y="-8"
     inkscape:window-maximized="1"
     inkscape:current-layer="svg4" />
  <g
     filter="url(#filter0_d_4_142)"
     id="g1"
     transform="matrix(1.0000027,0,0,1.0027487,0.65717762,-0.2417206)">
    <path
       d="M 6.49304,17.0007 C 6.54165,16.2975 6.95685,15.6718 7.58592,15.3538 L 33.0976,2.45619 c 0.5674,-0.28684 1.2374,-0.28684 1.8048,0 L 60.4141,15.3538 c 0.6291,0.318 1.0443,0.9437 1.0929,1.6469 l 4.3452,62.8614 C 65.9321,81.0182 65.0158,82 63.857,82 H 4.14302 C 2.98415,82 2.06787,81.0182 2.14778,79.8621 Z"
       fill="#f6ad54"
       id="path1" />
  </g>
  <path
     d="m 36.72645,37.148911 h 17.618 c 0.828,0 1.288,0.69 1.288,1.61 0,0.966 -0.46,1.61 -1.288,1.61 h -17.618 v 10.212 c 0,3.036 -1.656,4.14 -5.014,4.14 -1.656,0 -2.944,-0.138 -4.186,-0.368 -0.69,-0.138 -1.196,-0.736 -1.196,-1.61 0,-0.138 0,-0.276 0.046,-0.414 0.184,-0.736 0.644,-1.196 1.334,-1.196 0.138,0 0.276,0 0.46,0.046 0.874,0.184 2.116,0.322 3.174,0.322 1.38,0 1.794,-0.368 1.794,-1.564 v -9.568 H 15.014449 c -0.874,0 -1.334,-0.644 -1.334,-1.61 0,-0.874 0.46,-1.61 1.334,-1.61 h 6.624001 v -9.43 c 0,-0.782 0.736,-1.242 1.794,-1.242 1.058,0 1.748,0.46 1.748,1.242 v 9.43 h 8.05 v -13.018 c 0,-0.874 0.69,-1.38 1.748,-1.38 1.058,0 1.748,0.506 1.748,1.38 v 3.91 h 13.8 c 0.828,0 1.288,0.736 1.288,1.61 0,0.966 -0.46,1.702 -1.288,1.702 h -13.8 z m 8.786,5.428 c 2.576,2.852 6.026,5.52 9.338,7.222 0.552,0.276 0.782,0.828 0.782,1.38 0,0.414 -0.092,0.782 -0.322,1.15 -0.322,0.598 -0.92,0.92 -1.564,0.92 -0.322,0 -0.598,-0.092 -0.92,-0.23 -3.404,-1.886 -7.038,-4.784 -10.028,-8.234 -0.23,-0.276 -0.322,-0.552 -0.322,-0.828 0,-0.506 0.276,-1.012 0.736,-1.38 0.322,-0.276 0.782,-0.46 1.242,-0.46 0.414,0 0.782,0.138 1.058,0.46 z m -19.458,0.138 c 0.598,0.368 0.966,0.966 0.966,1.518 0,0.276 -0.092,0.552 -0.23,0.782 -2.76,4.094 -6.348001,7.314 -9.798001,9.522 -0.322,0.23 -0.736,0.368 -1.15,0.368 -0.552,0 -1.104,-0.23 -1.518,-0.782 -0.276,-0.368 -0.414,-0.828 -0.414,-1.196 0,-0.552 0.23,-1.012 0.644,-1.288 3.358,-2.116 6.808001,-5.106 9.108001,-8.602 0.276,-0.414 0.736,-0.644 1.288,-0.644 0.322,0 0.736,0.092 1.104,0.322 z m 20.332,7.682 c 0.414,0.368 0.598,0.828 0.598,1.288 0,0.46 -0.184,0.92 -0.506,1.288 -6.072,7.176 -16.974,11.822 -28.060001,12.558 -0.046,0 -0.092,0 -0.184,0 -0.92,0 -1.748,-0.414 -1.932,-1.472 -0.046,-0.138 -0.046,-0.276 -0.046,-0.368 0,-1.012 0.644,-1.702 1.656,-1.794 10.810001,-0.46 20.424001,-4.784 25.990001,-11.454 0.368,-0.368 0.782,-0.552 1.242,-0.552 0.414,0 0.874,0.184 1.242,0.506 z"
     fill="#2d3748"
     id="path2" />
  <defs
     id="defs4">
    <filter
       id="filter0_d_4_142"
       x="0.142822"
       y="0.241058"
       width="71.7144"
       height="87.7589"
       filterUnits="userSpaceOnUse"
       color-interpolation-filters="sRGB">
      <feFlood
         flood-opacity="0"
         result="BackgroundImageFix"
         id="feFlood2" />
      <feColorMatrix
         in="SourceAlpha"
         type="matrix"
         values="0 0 0 0 0 0 0 0 0 0 0 0 0 0 0 0 0 0 127 0"
         result="hardAlpha"
         id="feColorMatrix2" />
      <feOffset
         dx="2"
         dy="2"
         id="feOffset2" />
      <feGaussianBlur
         stdDeviation="2"
         id="feGaussianBlur2" />
      <feComposite
         in2="hardAlpha"
         operator="out"
         id="feComposite2" />
      <feColorMatrix
         type="matrix"
         values="0 0 0 0 0 0 0 0 0 0 0 0 0 0 0 0 0 0 0.25 0"
         id="feColorMatrix3" />
      <feBlend
         mode="normal"
         in2="BackgroundImageFix"
         result="effect1_dropShadow_4_142"
         id="feBlend3" />
      <feBlend
         mode="normal"
         in="SourceGraphic"
         in2="effect1_dropShadow_4_142"
         result="shape"
         id="feBlend4" />
    </filter>
  </defs>
</svg>
