<svg width="50" height="50" viewBox="0 0 72 88" fill="none" xmlns="http://www.w3.org/2000/svg">
<g filter="url(#filter0_d_4_149)">
<path d="M6.49304 17.0007C6.54165 16.2975 6.95685 15.6718 7.58592 15.3538L33.0976 2.45619C33.665 2.16935 34.335 2.16935 34.9024 2.45619L60.4141 15.3538C61.0432 15.6718 61.4584 16.2975 61.507 17.0007L65.8522 79.8621C65.9321 81.0182 65.0158 82 63.857 82H4.14302C2.98415 82 2.06787 81.0182 2.14778 79.8621L6.49304 17.0007Z" fill="#F6AD54"/>
</g>
<path d="M40.67 45.44H36.162V60.114C38.37 59.516 40.532 58.78 42.234 58.136C42.51 58.044 42.74 57.998 42.924 57.998C43.522 57.998 43.936 58.274 44.166 58.964C44.304 59.194 44.35 59.47 44.35 59.7C44.35 60.344 43.982 60.896 43.338 61.126C39.704 62.552 34.184 64.208 30.09 65.082C29.906 65.128 29.722 65.128 29.584 65.128C28.756 65.128 28.25 64.622 28.066 63.794C28.02 63.61 28.02 63.426 28.02 63.242C28.02 62.414 28.526 61.816 29.308 61.724C30.412 61.54 31.608 61.264 32.804 60.988V28.512C32.804 25.936 34.046 24.924 36.852 24.924H48.996C51.802 24.924 53.044 25.936 53.044 28.512V41.806C53.044 44.428 51.802 45.44 48.95 45.44H43.844C44.166 47.694 44.856 49.994 45.868 52.018C48.076 50.546 50.514 48.568 52.124 46.728C52.492 46.406 52.86 46.222 53.274 46.222C53.688 46.222 54.056 46.36 54.378 46.682C54.746 47.05 54.93 47.464 54.93 47.924C54.93 48.338 54.792 48.752 54.47 49.028C52.676 50.96 49.778 53.122 47.386 54.732C49.272 57.538 51.756 59.792 54.884 61.816C55.436 62.184 55.712 62.782 55.712 63.426C55.712 63.794 55.62 64.116 55.436 64.438C55.068 64.944 54.516 65.22 53.964 65.22C53.596 65.22 53.182 65.082 52.86 64.852C46.742 60.85 42.004 54.272 40.67 45.44ZM36.162 33.71H49.686V29.294C49.686 28.328 49.18 28.098 48.168 28.098H37.634C36.668 28.098 36.162 28.328 36.162 29.294V33.71ZM36.162 36.792V42.404H48.168C49.18 42.404 49.686 42.128 49.686 41.208V36.792H36.162ZM23.972 45.44V58.688C25.766 58.228 27.468 57.722 28.94 57.216C29.124 57.17 29.308 57.124 29.492 57.124C30.09 57.124 30.504 57.446 30.688 58.182C30.734 58.366 30.734 58.504 30.734 58.688C30.734 59.378 30.412 59.792 29.538 60.114C25.306 61.632 19.372 63.196 14.634 64.116C14.496 64.162 14.404 64.162 14.266 64.162C13.53 64.162 12.978 63.656 12.84 62.69C12.794 62.552 12.794 62.414 12.794 62.276C12.794 61.494 13.208 61.034 14.036 60.896C16.06 60.574 18.452 60.068 20.844 59.47V45.44H14.312C13.53 45.44 13.116 44.842 13.116 43.968C13.116 43.094 13.53 42.496 14.312 42.496H20.844V37.942H18.038C17.256 37.942 16.842 37.252 16.842 36.424C16.842 35.596 17.256 34.998 18.038 34.998H27.698C28.434 34.998 28.848 35.55 28.848 36.424C28.848 37.252 28.434 37.942 27.698 37.942H23.972V42.496H29.906C30.688 42.496 31.102 43.094 31.102 43.968C31.102 44.842 30.688 45.44 29.906 45.44H23.972ZM14.91 47.832C15.094 47.786 15.278 47.74 15.462 47.74C16.106 47.74 16.658 48.062 16.934 48.798C17.716 50.822 18.498 53.444 18.958 55.698C19.004 55.882 19.004 56.02 19.004 56.158C19.004 56.894 18.544 57.354 17.9 57.538C17.716 57.584 17.532 57.63 17.348 57.63C16.704 57.63 16.152 57.262 15.968 56.388C15.508 54.318 14.772 51.65 13.944 49.626C13.898 49.442 13.852 49.304 13.852 49.12C13.852 48.522 14.266 48.016 14.91 47.832ZM28.572 55.33C28.296 56.02 27.79 56.388 27.192 56.388C27.008 56.388 26.824 56.342 26.594 56.25C26.042 56.02 25.766 55.652 25.766 55.146C25.766 54.916 25.812 54.64 25.95 54.318C26.548 52.754 27.238 50.546 27.652 48.568C27.836 47.878 28.342 47.556 28.94 47.556C29.078 47.556 29.262 47.556 29.4 47.602C30.09 47.74 30.55 48.246 30.55 48.89C30.55 49.028 30.55 49.12 30.504 49.258C30.044 51.328 29.354 53.49 28.572 55.33ZM24.938 24.832C26.824 27.408 29.032 29.754 30.964 31.272C31.378 31.64 31.608 32.146 31.608 32.606C31.608 33.02 31.47 33.434 31.194 33.756C30.918 34.124 30.412 34.308 29.952 34.308C29.492 34.308 29.032 34.17 28.664 33.848C26.916 32.376 24.708 29.892 23.328 27.914C23.144 27.592 22.96 27.454 22.776 27.454C22.592 27.454 22.454 27.592 22.27 27.868C20.154 31.088 17.946 33.618 15.14 36.01C14.818 36.286 14.45 36.424 14.082 36.424C13.484 36.424 12.932 36.102 12.61 35.688C12.38 35.412 12.288 35.044 12.288 34.722C12.288 34.216 12.518 33.756 12.886 33.434C15.922 31.134 18.406 28.282 20.522 24.832C21.028 24.05 21.856 23.636 22.684 23.636C23.512 23.636 24.386 24.05 24.938 24.832Z" fill="#2D3748"/>
<defs>
<filter id="filter0_d_4_149" x="0.142822" y="0.241058" width="71.7144" height="87.7589" filterUnits="userSpaceOnUse" color-interpolation-filters="sRGB">
<feFlood flood-opacity="0" result="BackgroundImageFix"/>
<feColorMatrix in="SourceAlpha" type="matrix" values="0 0 0 0 0 0 0 0 0 0 0 0 0 0 0 0 0 0 127 0" result="hardAlpha"/>
<feOffset dx="2" dy="2"/>
<feGaussianBlur stdDeviation="2"/>
<feComposite in2="hardAlpha" operator="out"/>
<feColorMatrix type="matrix" values="0 0 0 0 0 0 0 0 0 0 0 0 0 0 0 0 0 0 0.25 0"/>
<feBlend mode="normal" in2="BackgroundImageFix" result="effect1_dropShadow_4_149"/>
<feBlend mode="normal" in="SourceGraphic" in2="effect1_dropShadow_4_149" result="shape"/>
</filter>
</defs>
</svg>
