<svg width="50" height="50" viewBox="0 0 72 88" fill="none" xmlns="http://www.w3.org/2000/svg">
<g filter="url(#filter0_d_4_161)">
<path d="M6.49304 17.0007C6.54165 16.2975 6.95685 15.6718 7.58592 15.3538L33.0976 2.45619C33.665 2.16935 34.335 2.16935 34.9024 2.45619L60.4141 15.3538C61.0432 15.6718 61.4584 16.2975 61.507 17.0007L65.8522 79.8621C65.9321 81.0182 65.0158 82 63.857 82H4.14302C2.98415 82 2.06787 81.0182 2.14778 79.8621L6.49304 17.0007Z" fill="#F6AD54"/>
</g>
<path d="M31.378 29.616H16.152C15.278 29.616 14.818 28.696 14.818 27.822C14.818 26.902 15.278 26.074 16.152 26.074H51.71C52.63 26.074 53.044 26.902 53.044 27.776C53.044 28.696 52.63 29.616 51.71 29.616H35.15V40.932H49.134C50.008 40.932 50.422 41.76 50.422 42.68C50.422 43.554 50.008 44.428 49.134 44.428H35.15V59.424H53.55C54.424 59.424 54.884 60.344 54.884 61.218C54.884 62.138 54.424 62.966 53.55 62.966H14.45C13.576 62.966 13.116 62.138 13.116 61.218C13.116 60.344 13.576 59.424 14.45 59.424H31.378V44.428H18.912C18.038 44.428 17.624 43.554 17.624 42.68C17.624 41.76 18.038 40.932 18.912 40.932H31.378V29.616ZM40.9 47.188C41.268 46.866 41.682 46.728 42.096 46.728C42.556 46.728 43.016 46.912 43.384 47.28C45.224 49.074 47.524 51.834 49.18 54.272C49.41 54.594 49.502 54.916 49.502 55.284C49.502 55.79 49.226 56.342 48.72 56.664C48.352 56.94 47.938 57.078 47.524 57.078C46.972 57.078 46.42 56.802 46.098 56.296C44.58 53.996 42.372 51.282 40.578 49.442C40.348 49.12 40.21 48.752 40.21 48.43C40.21 48.016 40.44 47.556 40.9 47.188Z" fill="#2D3748"/>
<defs>
<filter id="filter0_d_4_161" x="0.142822" y="0.241058" width="71.7144" height="87.7589" filterUnits="userSpaceOnUse" color-interpolation-filters="sRGB">
<feFlood flood-opacity="0" result="BackgroundImageFix"/>
<feColorMatrix in="SourceAlpha" type="matrix" values="0 0 0 0 0 0 0 0 0 0 0 0 0 0 0 0 0 0 127 0" result="hardAlpha"/>
<feOffset dx="2" dy="2"/>
<feGaussianBlur stdDeviation="2"/>
<feComposite in2="hardAlpha" operator="out"/>
<feColorMatrix type="matrix" values="0 0 0 0 0 0 0 0 0 0 0 0 0 0 0 0 0 0 0.25 0"/>
<feBlend mode="normal" in2="BackgroundImageFix" result="effect1_dropShadow_4_161"/>
<feBlend mode="normal" in="SourceGraphic" in2="effect1_dropShadow_4_161" result="shape"/>
</filter>
</defs>
</svg>
