<svg width="50" height="50" viewBox="0 0 72 88" fill="none" xmlns="http://www.w3.org/2000/svg">
<g filter="url(#filter0_d_4_158)">
<path d="M6.49304 17.0007C6.54165 16.2975 6.95685 15.6718 7.58592 15.3538L33.0976 2.45619C33.665 2.16935 34.335 2.16935 34.9024 2.45619L60.4141 15.3538C61.0432 15.6718 61.4584 16.2975 61.507 17.0007L65.8522 79.8621C65.9321 81.0182 65.0158 82 63.857 82H4.14302C2.98415 82 2.06787 81.0182 2.14778 79.8621L6.49304 17.0007Z" fill="#F6AD54"/>
</g>
<path d="M23.604 41.714H30.504V30.674C30.504 29.846 31.194 29.386 32.206 29.386C33.218 29.386 33.908 29.846 33.908 30.674V41.714H39.75C42.004 41.714 43.338 42.818 43.384 45.118C43.476 50.73 44.396 54.594 46.006 57.354C46.972 59.102 48.49 60.666 49.962 61.448C50.468 61.678 50.882 61.816 51.158 61.816C51.572 61.816 51.848 61.586 52.032 61.172C52.262 60.574 52.538 59.746 52.676 58.918C52.814 58.412 53.274 58.136 53.872 58.136C54.01 58.136 54.148 58.136 54.286 58.182C55.16 58.274 55.528 58.734 55.528 59.516C55.528 59.608 55.528 59.746 55.528 59.838C55.344 61.632 54.838 63.15 53.78 64.254C53.09 64.99 52.216 65.404 51.204 65.404C50.468 65.404 49.594 65.174 48.72 64.714C46.65 63.748 44.626 61.816 43.292 59.608C41.36 56.388 40.21 51.696 40.072 46.222C40.026 45.302 39.796 44.98 38.692 44.98H33.908V64.53C33.908 65.404 33.172 65.91 32.206 65.91C31.194 65.91 30.504 65.404 30.504 64.53V44.98H23.512C23.236 49.764 22.638 52.8 21.764 55.468C20.568 59.102 18.13 62.874 15.922 64.852C15.462 65.312 14.956 65.496 14.496 65.496C14.036 65.496 13.53 65.312 13.162 64.898C12.748 64.576 12.564 64.116 12.564 63.702C12.564 63.242 12.794 62.782 13.254 62.322C15.6 60.114 17.578 57.262 18.636 54.042C19.418 51.742 19.924 49.028 20.154 44.98H13.392C12.61 44.98 12.15 44.198 12.15 43.324C12.15 42.45 12.61 41.714 13.392 41.714H20.292C20.338 40.794 20.338 39.782 20.338 38.724V35.55C18.728 36.148 17.026 36.7 15.37 37.16C15.14 37.206 14.956 37.252 14.772 37.252C14.036 37.252 13.576 36.792 13.346 36.01C13.3 35.826 13.3 35.688 13.3 35.55C13.3 34.814 13.852 34.262 14.542 34.078C18.406 33.158 22.776 31.41 25.398 29.432C25.72 29.202 26.088 29.11 26.456 29.11C26.962 29.11 27.468 29.34 27.79 29.754C28.02 30.03 28.158 30.398 28.158 30.766C28.158 31.226 27.928 31.686 27.422 31.962C26.272 32.744 24.984 33.48 23.65 34.124V38.908C23.65 39.92 23.65 40.84 23.604 41.714ZM15.6 24.556H40.164C42.648 24.556 44.12 25.568 44.12 27.96C44.212 32.008 44.672 34.814 46.144 37.666C47.156 39.598 48.582 41.024 49.916 41.714C50.33 41.944 50.652 42.036 50.928 42.036C51.25 42.036 51.434 41.852 51.664 41.484C51.94 40.932 52.17 40.15 52.354 39.552C52.538 39.23 52.906 39.046 53.412 39.046C53.55 39.046 53.734 39.046 53.918 39.092C54.746 39.322 55.114 39.782 55.114 40.426C55.114 40.518 55.114 40.656 55.068 40.794C54.7 42.404 54.24 43.554 53.366 44.52C52.768 45.164 51.94 45.486 51.02 45.486C50.882 45.486 50.744 45.486 50.606 45.486C50.79 45.532 50.928 45.578 51.112 45.67C51.572 45.946 51.848 46.36 51.848 46.82C51.848 47.096 51.756 47.372 51.572 47.648C50.652 48.89 49.226 50.362 47.984 51.282C47.662 51.558 47.294 51.696 46.926 51.696C46.512 51.696 46.098 51.512 45.776 51.098C45.546 50.822 45.454 50.5 45.454 50.224C45.454 49.81 45.638 49.396 46.052 49.028C47.11 48.2 48.352 46.958 48.996 45.992C49.318 45.578 49.732 45.394 50.192 45.394C49.732 45.302 49.226 45.118 48.766 44.888C46.65 43.83 44.718 42.082 43.476 39.828C41.682 36.378 40.9 33.066 40.854 29.294C40.808 28.236 40.532 27.822 39.336 27.822H15.6C14.818 27.822 14.358 27.086 14.358 26.166C14.358 25.292 14.818 24.556 15.6 24.556ZM52.032 25.338C52.492 25.66 52.722 26.12 52.722 26.534C52.722 26.81 52.63 27.086 52.446 27.362C51.434 28.696 49.824 30.26 48.536 31.226C48.26 31.41 47.984 31.502 47.662 31.502C47.202 31.502 46.696 31.272 46.374 30.858C46.144 30.582 46.052 30.306 46.052 29.984C46.052 29.616 46.19 29.248 46.512 29.018C47.708 28.098 49.18 26.58 50.008 25.43C50.238 25.108 50.606 24.97 51.02 24.97C51.388 24.97 51.756 25.108 52.032 25.338ZM49.502 51.972C50.744 52.616 52.308 53.674 53.596 54.732C53.964 55.008 54.148 55.422 54.148 55.79C54.148 56.112 54.01 56.434 53.78 56.756C53.412 57.124 52.998 57.354 52.492 57.354C52.17 57.354 51.802 57.216 51.434 56.986C50.376 56.204 48.95 55.146 47.616 54.318C47.202 54.088 47.018 53.72 47.018 53.306C47.018 53.03 47.156 52.708 47.386 52.478C47.754 51.972 48.26 51.742 48.72 51.742C48.996 51.742 49.226 51.834 49.502 51.972ZM49.088 32.376C50.284 32.974 52.216 34.124 53.504 35.228C53.872 35.55 54.01 35.918 54.01 36.332C54.01 36.654 53.918 37.022 53.688 37.252C53.366 37.712 52.86 37.896 52.446 37.896C52.078 37.896 51.71 37.758 51.434 37.528C50.376 36.608 48.812 35.642 47.386 34.814C46.972 34.584 46.788 34.17 46.788 33.756C46.788 33.48 46.88 33.158 47.11 32.928C47.478 32.468 47.892 32.192 48.398 32.192C48.628 32.192 48.858 32.238 49.088 32.376Z" fill="#2D3748"/>
<defs>
<filter id="filter0_d_4_158" x="0.142822" y="0.241058" width="71.7144" height="87.7589" filterUnits="userSpaceOnUse" color-interpolation-filters="sRGB">
<feFlood flood-opacity="0" result="BackgroundImageFix"/>
<feColorMatrix in="SourceAlpha" type="matrix" values="0 0 0 0 0 0 0 0 0 0 0 0 0 0 0 0 0 0 127 0" result="hardAlpha"/>
<feOffset dx="2" dy="2"/>
<feGaussianBlur stdDeviation="2"/>
<feComposite in2="hardAlpha" operator="out"/>
<feColorMatrix type="matrix" values="0 0 0 0 0 0 0 0 0 0 0 0 0 0 0 0 0 0 0.25 0"/>
<feBlend mode="normal" in2="BackgroundImageFix" result="effect1_dropShadow_4_158"/>
<feBlend mode="normal" in="SourceGraphic" in2="effect1_dropShadow_4_158" result="shape"/>
</filter>
</defs>
</svg>
