<svg width="50" height="50" viewBox="0 0 72 88" fill="none" xmlns="http://www.w3.org/2000/svg">
<g filter="url(#filter0_d_4_155)">
<path d="M6.49304 17.0007C6.54165 16.2975 6.95685 15.6718 7.58592 15.3538L33.0976 2.45619C33.665 2.16935 34.335 2.16935 34.9024 2.45619L60.4141 15.3538C61.0432 15.6718 61.4584 16.2975 61.507 17.0007L65.8522 79.8621C65.9321 81.0182 65.0158 82 63.857 82H4.14302C2.98415 82 2.06787 81.0182 2.14778 79.8621L6.49304 17.0007Z" fill="#F6AD54"/>
</g>
<path d="M19.004 43.232V39.23C19.004 38.034 19.464 36.976 20.246 36.148C18.958 37.206 17.624 38.172 16.336 39.046C15.968 39.276 15.554 39.414 15.186 39.414C14.634 39.414 14.128 39.138 13.806 38.586C13.576 38.264 13.484 37.942 13.484 37.574C13.484 37.022 13.76 36.516 14.358 36.148C19.234 33.342 24.018 28.742 26.778 23.912C27.146 23.222 27.698 22.992 28.342 22.992C28.572 22.992 28.848 23.038 29.17 23.084C29.952 23.222 30.412 23.728 30.412 24.372C30.412 24.602 30.366 24.832 30.228 25.062C29.998 25.43 29.768 25.752 29.538 26.12H39.888C41.866 26.12 43.016 27.132 43.016 28.42C43.016 29.018 42.786 29.616 42.372 30.26C41.268 31.824 39.934 33.158 38.554 34.354H47.11C49.87 34.354 51.388 35.596 51.388 38.31V60.666C51.388 63.886 49.548 65.082 46.006 65.082C43.936 65.082 42.188 64.944 40.808 64.576C40.072 64.392 39.612 63.886 39.612 63.104C39.612 62.92 39.658 62.736 39.704 62.552C39.934 61.678 40.44 61.31 41.084 61.31C41.222 61.31 41.36 61.31 41.498 61.356C42.832 61.678 44.304 61.816 45.592 61.816C47.386 61.816 47.892 61.402 47.892 59.7V53.904H21.764C20.936 58.228 19.418 61.54 16.98 64.622C16.52 65.22 15.968 65.496 15.416 65.496C15.002 65.496 14.588 65.358 14.22 65.082C13.668 64.668 13.3 64.162 13.3 63.564C13.3 63.196 13.438 62.828 13.76 62.46C17.808 57.722 19.004 53.26 19.004 43.232ZM37.726 29.11H27.33C25.49 31.318 23.466 33.388 21.258 35.274C22.178 34.676 23.282 34.354 24.386 34.354H34.414C36.024 32.974 37.404 31.548 38.278 30.26C38.508 29.938 38.6 29.708 38.6 29.524C38.6 29.248 38.324 29.11 37.726 29.11ZM47.892 45.532H36.576V50.73H47.892V45.532ZM47.892 42.45V38.632C47.892 37.666 47.432 37.436 46.512 37.436H36.576V42.45H47.892ZM33.218 37.436H23.972C23.052 37.436 22.546 37.666 22.546 38.632V42.45H33.218V37.436ZM33.218 45.532H22.546C22.5 47.28 22.408 48.982 22.224 50.73H33.218V45.532Z" fill="#2D3748"/>
<defs>
<filter id="filter0_d_4_155" x="0.142822" y="0.241058" width="71.7144" height="87.7589" filterUnits="userSpaceOnUse" color-interpolation-filters="sRGB">
<feFlood flood-opacity="0" result="BackgroundImageFix"/>
<feColorMatrix in="SourceAlpha" type="matrix" values="0 0 0 0 0 0 0 0 0 0 0 0 0 0 0 0 0 0 127 0" result="hardAlpha"/>
<feOffset dx="2" dy="2"/>
<feGaussianBlur stdDeviation="2"/>
<feComposite in2="hardAlpha" operator="out"/>
<feColorMatrix type="matrix" values="0 0 0 0 0 0 0 0 0 0 0 0 0 0 0 0 0 0 0.25 0"/>
<feBlend mode="normal" in2="BackgroundImageFix" result="effect1_dropShadow_4_155"/>
<feBlend mode="normal" in="SourceGraphic" in2="effect1_dropShadow_4_155" result="shape"/>
</filter>
</defs>
</svg>
