<svg width="50" height="50" viewBox="0 0 72 88" fill="none" xmlns="http://www.w3.org/2000/svg">
<g filter="url(#filter0_d_4_146)">
<path d="M6.49304 17.0007C6.54165 16.2975 6.95685 15.6718 7.58592 15.3538L33.0976 2.45619C33.665 2.16935 34.335 2.16935 34.9024 2.45619L60.4141 15.3538C61.0432 15.6718 61.4584 16.2975 61.507 17.0007L65.8522 79.8621C65.9321 81.0182 65.0158 82 63.857 82H4.14302C2.98415 82 2.06787 81.0182 2.14778 79.8621L6.49304 17.0007Z" fill="#F6AD54"/>
</g>
<path d="M23.144 32.146H26.87C27.698 32.146 28.158 32.79 28.158 33.71C28.158 34.584 27.698 35.274 26.87 35.274H23.236C24.386 38.448 26.686 41.852 28.25 43.784C28.618 44.198 28.802 44.658 28.802 45.072C28.802 45.486 28.664 45.9 28.296 46.176C28.02 46.452 27.698 46.59 27.33 46.59C26.778 46.59 26.226 46.314 25.858 45.716C24.8 44.06 23.282 41.208 22.592 38.77C22.868 41.438 23.144 44.428 23.144 46.406V64.76C23.144 65.634 22.546 66.094 21.488 66.094C20.43 66.094 19.786 65.634 19.786 64.76V49.212C19.786 46.912 20.2 42.588 20.522 39.046C19.51 44.198 16.934 50.04 15.186 52.524C14.726 53.168 14.128 53.49 13.622 53.49C13.3 53.49 12.978 53.398 12.702 53.168C12.334 52.846 12.104 52.386 12.104 51.88C12.104 51.466 12.242 51.098 12.472 50.73C15.14 47.05 18.13 40.748 19.372 35.274H14.358C13.53 35.274 13.07 34.584 13.07 33.71C13.07 32.79 13.53 32.146 14.358 32.146H19.74V24.326C19.74 23.452 20.43 22.946 21.488 22.946C22.546 22.946 23.144 23.452 23.144 24.326V32.146ZM38.968 33.388H30.55C29.768 33.388 29.262 32.744 29.262 31.778C29.262 30.812 29.768 30.168 30.55 30.168H38.968V24.418C38.968 23.59 39.612 23.038 40.716 23.038C41.774 23.038 42.464 23.59 42.464 24.418V30.168H52.354C53.136 30.168 53.642 30.812 53.642 31.778C53.642 32.744 53.136 33.388 52.354 33.388H42.464V39.736H53.78C54.608 39.736 55.114 40.38 55.114 41.346C55.114 42.312 54.608 42.956 53.78 42.956H29.538C28.71 42.956 28.204 42.312 28.204 41.346C28.204 40.38 28.71 39.736 29.538 39.736H38.968V33.388ZM38.968 53.26H29.86C29.032 53.26 28.572 52.662 28.572 51.696C28.572 50.684 29.032 50.04 29.86 50.04H38.968V46.084C38.968 45.164 39.612 44.704 40.716 44.704C41.774 44.704 42.464 45.164 42.464 46.084V50.04H52.4C53.182 50.04 53.688 50.73 53.688 51.696C53.688 52.662 53.182 53.26 52.4 53.26H42.464V60.85H54.378C55.206 60.85 55.666 61.54 55.666 62.506C55.666 63.472 55.206 64.162 54.378 64.162H27.376C26.594 64.162 26.134 63.472 26.134 62.506C26.134 61.494 26.594 60.85 27.376 60.85H38.968V53.26Z" fill="#2D3748"/>
<defs>
<filter id="filter0_d_4_146" x="0.142822" y="0.241058" width="71.7144" height="87.7589" filterUnits="userSpaceOnUse" color-interpolation-filters="sRGB">
<feFlood flood-opacity="0" result="BackgroundImageFix"/>
<feColorMatrix in="SourceAlpha" type="matrix" values="0 0 0 0 0 0 0 0 0 0 0 0 0 0 0 0 0 0 127 0" result="hardAlpha"/>
<feOffset dx="2" dy="2"/>
<feGaussianBlur stdDeviation="2"/>
<feComposite in2="hardAlpha" operator="out"/>
<feColorMatrix type="matrix" values="0 0 0 0 0 0 0 0 0 0 0 0 0 0 0 0 0 0 0.25 0"/>
<feBlend mode="normal" in2="BackgroundImageFix" result="effect1_dropShadow_4_146"/>
<feBlend mode="normal" in="SourceGraphic" in2="effect1_dropShadow_4_146" result="shape"/>
</filter>
</defs>
</svg>
