<svg width="50" height="50" viewBox="0 0 72 88" fill="none" xmlns="http://www.w3.org/2000/svg">
<g filter="url(#filter0_d_4_152)">
<path d="M6.49304 17.0007C6.54165 16.2975 6.95685 15.6718 7.58592 15.3538L33.0976 2.45619C33.665 2.16935 34.335 2.16935 34.9024 2.45619L60.4141 15.3538C61.0432 15.6718 61.4584 16.2975 61.507 17.0007L65.8522 79.8621C65.9321 81.0182 65.0158 82 63.857 82H4.14302C2.98415 82 2.06787 81.0182 2.14778 79.8621L6.49304 17.0007Z" fill="#F6AD54"/>
</g>
<path d="M31.884 39.506H25.168C24.34 39.506 23.834 38.908 23.834 37.988C23.834 37.022 24.34 36.378 25.168 36.378H42.694C43.522 36.378 44.074 37.022 44.074 37.988C44.074 38.908 43.522 39.506 42.694 39.506H35.38V45.394H51.802C52.63 45.394 53.136 46.038 53.136 47.004C53.136 47.924 52.63 48.614 51.802 48.614H35.38V60.574H53.136C54.01 60.574 54.47 61.264 54.47 62.184C54.47 63.15 54.01 63.84 53.136 63.84H14.864C13.99 63.84 13.53 63.15 13.53 62.184C13.53 61.264 13.99 60.574 14.864 60.574H31.884V48.614H16.198C15.37 48.614 14.864 47.924 14.864 47.004C14.864 46.038 15.37 45.394 16.198 45.394H31.884V39.506ZM36.484 24.28C41.084 29.754 47.708 34.124 54.608 37.022C55.436 37.344 55.804 38.08 55.804 38.816C55.804 39.138 55.758 39.414 55.62 39.644C55.344 40.334 54.746 40.794 53.964 40.794C53.688 40.794 53.366 40.748 53.044 40.564C46.006 37.482 38.83 32.376 34.46 27.316C34.23 27.04 34 26.902 33.816 26.902C33.586 26.902 33.402 27.04 33.126 27.316C28.618 32.79 21.672 37.62 14.91 40.564C14.634 40.748 14.312 40.794 14.036 40.794C13.3 40.794 12.702 40.38 12.426 39.644C12.334 39.368 12.288 39.092 12.288 38.862C12.288 38.126 12.656 37.528 13.484 37.16C20.154 34.492 26.41 29.892 31.102 24.326C31.792 23.498 32.804 23.13 33.816 23.13C34.828 23.13 35.794 23.498 36.484 24.28ZM46.604 50.086C47.248 50.316 47.662 50.822 47.662 51.466C47.662 51.742 47.616 52.018 47.478 52.294C46.466 54.64 45.224 57.032 43.982 58.642C43.522 59.24 42.97 59.516 42.418 59.516C42.096 59.516 41.774 59.424 41.452 59.24C40.946 58.918 40.716 58.458 40.716 57.998C40.716 57.63 40.854 57.262 41.038 56.986C42.234 55.33 43.522 53.03 44.35 50.914C44.672 50.224 45.132 49.902 45.73 49.902C46.006 49.902 46.328 49.948 46.604 50.086ZM20.982 50.224C21.304 50.086 21.626 49.994 21.948 49.994C22.546 49.994 23.098 50.27 23.42 50.776C24.708 52.846 25.766 54.962 26.41 56.71C26.548 57.032 26.594 57.308 26.594 57.584C26.594 58.32 26.134 58.826 25.49 59.056C25.26 59.148 25.03 59.194 24.754 59.194C24.064 59.194 23.42 58.826 23.144 58.09C22.546 56.434 21.442 54.18 20.338 52.386C20.154 52.11 20.062 51.834 20.062 51.558C20.062 50.96 20.476 50.5 20.982 50.224Z" fill="#2D3748"/>
<defs>
<filter id="filter0_d_4_152" x="0.142822" y="0.241058" width="71.7144" height="87.7589" filterUnits="userSpaceOnUse" color-interpolation-filters="sRGB">
<feFlood flood-opacity="0" result="BackgroundImageFix"/>
<feColorMatrix in="SourceAlpha" type="matrix" values="0 0 0 0 0 0 0 0 0 0 0 0 0 0 0 0 0 0 127 0" result="hardAlpha"/>
<feOffset dx="2" dy="2"/>
<feGaussianBlur stdDeviation="2"/>
<feComposite in2="hardAlpha" operator="out"/>
<feColorMatrix type="matrix" values="0 0 0 0 0 0 0 0 0 0 0 0 0 0 0 0 0 0 0.25 0"/>
<feBlend mode="normal" in2="BackgroundImageFix" result="effect1_dropShadow_4_152"/>
<feBlend mode="normal" in="SourceGraphic" in2="effect1_dropShadow_4_152" result="shape"/>
</filter>
</defs>
</svg>
