<svg width="50" height="50" viewBox="0 0 72 88" fill="none" xmlns="http://www.w3.org/2000/svg">
<g filter="url(#filter0_d_4_143)">
<path d="M6.49304 17.0007C6.54165 16.2975 6.95685 15.6718 7.58592 15.3538L33.0976 2.45619C33.665 2.16935 34.335 2.16935 34.9024 2.45619L60.4141 15.3538C61.0432 15.6718 61.4584 16.2975 61.507 17.0007L65.8522 79.8621C65.9321 81.0182 65.0158 82 63.857 82H4.14302C2.98415 82 2.06787 81.0182 2.14778 79.8621L6.49304 17.0007Z" fill="#F6AD54"/>
</g>
<path d="M28.894 36.148H14.772C13.99 36.148 13.484 35.504 13.484 34.538C13.484 33.618 13.99 33.02 14.772 33.02H32.068V28.65C27.422 29.018 22.73 29.202 18.452 29.202C17.624 29.202 17.026 28.512 17.026 27.638C17.026 26.764 17.578 26.074 18.36 26.074C28.434 26.074 39.612 25.384 48.076 23.314C48.26 23.268 48.398 23.268 48.536 23.268C49.318 23.268 49.824 23.636 50.1 24.464C50.146 24.694 50.192 24.878 50.192 25.062C50.192 25.844 49.686 26.396 48.858 26.534C44.902 27.362 40.256 27.96 35.38 28.42V33.02H53.182C54.01 33.02 54.47 33.618 54.47 34.538C54.47 35.458 54.01 36.148 53.182 36.148H38.554C42.418 39.598 48.444 42.266 54.194 44.014C55.022 44.29 55.39 44.888 55.39 45.578C55.39 45.762 55.344 45.992 55.298 46.176C55.068 47.096 54.424 47.556 53.688 47.556C53.504 47.556 53.32 47.51 53.136 47.464C46.696 45.532 38.876 40.84 34.966 36.378C35.196 37.436 35.38 38.954 35.38 40.242V43.508C35.38 44.29 34.736 44.75 33.678 44.75C32.712 44.75 32.068 44.336 32.068 43.508V40.38C32.068 39.046 32.252 37.528 32.436 36.424C28.664 40.932 21.534 45.256 15.37 47.602C15.094 47.694 14.818 47.74 14.588 47.74C13.898 47.74 13.346 47.28 13.07 46.498C13.024 46.268 12.978 46.084 12.978 45.9C12.978 45.164 13.438 44.566 14.174 44.29C19.694 42.404 25.214 39.552 28.894 36.148ZM23.788 45.762H44.258C47.156 45.762 48.398 46.82 48.398 49.442V60.988C48.398 63.656 47.156 64.714 44.258 64.714H23.788C20.844 64.714 19.648 63.656 19.648 60.988V49.442C19.648 46.82 20.844 45.762 23.788 45.762ZM23.144 53.444H44.902V49.948C44.902 49.028 44.488 48.752 43.522 48.752H24.478C23.558 48.752 23.144 49.028 23.144 49.948V53.444ZM23.144 56.434V60.482C23.144 61.402 23.558 61.678 24.478 61.678H43.522C44.488 61.678 44.902 61.402 44.902 60.482V56.434H23.144Z" fill="#2D3748"/>
<defs>
<filter id="filter0_d_4_143" x="0.142822" y="0.241058" width="71.7144" height="87.7589" filterUnits="userSpaceOnUse" color-interpolation-filters="sRGB">
<feFlood flood-opacity="0" result="BackgroundImageFix"/>
<feColorMatrix in="SourceAlpha" type="matrix" values="0 0 0 0 0 0 0 0 0 0 0 0 0 0 0 0 0 0 127 0" result="hardAlpha"/>
<feOffset dx="2" dy="2"/>
<feGaussianBlur stdDeviation="2"/>
<feComposite in2="hardAlpha" operator="out"/>
<feColorMatrix type="matrix" values="0 0 0 0 0 0 0 0 0 0 0 0 0 0 0 0 0 0 0.25 0"/>
<feBlend mode="normal" in2="BackgroundImageFix" result="effect1_dropShadow_4_143"/>
<feBlend mode="normal" in="SourceGraphic" in2="effect1_dropShadow_4_143" result="shape"/>
</filter>
</defs>
</svg>
