<svg width="50" height="50" viewBox="0 0 72 88" fill="none" xmlns="http://www.w3.org/2000/svg">
<g filter="url(#filter0_d_4_176)">
<path d="M6.49304 17.0007C6.54165 16.2975 6.95685 15.6718 7.58592 15.3538L33.0976 2.45619C33.665 2.16935 34.335 2.16935 34.9024 2.45619L60.4141 15.3538C61.0432 15.6718 61.4584 16.2975 61.507 17.0007L65.8522 79.8621C65.9321 81.0182 65.0158 82 63.857 82H4.14302C2.98415 82 2.06787 81.0182 2.14778 79.8621L6.49304 17.0007Z" fill="#F6AD54"/>
</g>
<path d="M35.38 60.574H53.366C54.194 60.574 54.654 61.218 54.654 62.23C54.654 63.196 54.194 63.932 53.366 63.932H14.588C13.76 63.932 13.3 63.242 13.3 62.23C13.3 61.264 13.76 60.574 14.588 60.574H31.884V52.386H20.66C19.832 52.386 19.372 51.696 19.372 50.73C19.372 49.764 19.832 49.166 20.66 49.166H31.884V42.358H22.454C21.626 42.358 21.166 41.668 21.166 40.702C21.166 39.736 21.626 39.138 22.454 39.138H45.316C46.19 39.138 46.65 39.736 46.65 40.702C46.65 41.668 46.19 42.358 45.316 42.358H35.38V49.166H47.34C48.168 49.166 48.582 49.764 48.582 50.73C48.582 51.696 48.168 52.386 47.34 52.386H35.38V60.574ZM31.01 24.464C31.654 23.682 32.712 23.268 33.77 23.268C34.828 23.268 35.932 23.682 36.53 24.464C41.406 31.088 47.8 35.274 54.424 38.448C55.298 38.816 55.666 39.506 55.666 40.242C55.666 40.518 55.62 40.84 55.482 41.162C55.206 41.852 54.516 42.312 53.78 42.312C53.504 42.312 53.228 42.266 52.952 42.128C45.822 38.678 38.6 32.974 34.414 27.316C34.184 26.994 34 26.856 33.816 26.856C33.632 26.856 33.402 26.994 33.218 27.27C29.078 33.296 21.948 38.862 15.554 41.898C15.094 42.128 14.634 42.266 14.174 42.266C13.53 42.266 12.978 41.99 12.656 41.346C12.518 41.024 12.426 40.702 12.426 40.38C12.426 39.69 12.84 39 13.806 38.54C19.602 35.78 25.904 31.548 31.01 24.464Z" fill="#2D3748"/>
<defs>
<filter id="filter0_d_4_176" x="0.142822" y="0.241058" width="71.7144" height="87.7589" filterUnits="userSpaceOnUse" color-interpolation-filters="sRGB">
<feFlood flood-opacity="0" result="BackgroundImageFix"/>
<feColorMatrix in="SourceAlpha" type="matrix" values="0 0 0 0 0 0 0 0 0 0 0 0 0 0 0 0 0 0 127 0" result="hardAlpha"/>
<feOffset dx="2" dy="2"/>
<feGaussianBlur stdDeviation="2"/>
<feComposite in2="hardAlpha" operator="out"/>
<feColorMatrix type="matrix" values="0 0 0 0 0 0 0 0 0 0 0 0 0 0 0 0 0 0 0.25 0"/>
<feBlend mode="normal" in2="BackgroundImageFix" result="effect1_dropShadow_4_176"/>
<feBlend mode="normal" in="SourceGraphic" in2="effect1_dropShadow_4_176" result="shape"/>
</filter>
</defs>
</svg>
