<svg width="50" height="50" viewBox="0 0 72 88" fill="none" xmlns="http://www.w3.org/2000/svg">
<g filter="url(#filter0_d_4_173)">
<path d="M6.49304 17.0007C6.54165 16.2975 6.95685 15.6718 7.58592 15.3538L33.0976 2.45619C33.665 2.16935 34.335 2.16935 34.9024 2.45619L60.4141 15.3538C61.0432 15.6718 61.4584 16.2975 61.507 17.0007L65.8522 79.8621C65.9321 81.0182 65.0158 82 63.857 82H4.14302C2.98415 82 2.06787 81.0182 2.14778 79.8621L6.49304 17.0007Z" fill="#F6AD54"/>
</g>
<path d="M31.93 32.606H18.682C17.9 32.606 17.394 31.824 17.394 30.858C17.394 29.846 17.9 29.202 18.682 29.202H31.93V24.602C31.93 23.774 32.62 23.222 33.724 23.222C34.828 23.222 35.518 23.774 35.518 24.602V29.202H49.226C50.054 29.202 50.514 29.892 50.514 30.858C50.514 31.824 50.054 32.606 49.226 32.606H35.518V39.23H52.722C53.55 39.23 54.01 39.966 54.01 40.932C54.01 41.898 53.55 42.634 52.722 42.634H15.232C14.404 42.634 13.944 41.898 13.944 40.932C13.944 39.966 14.404 39.23 15.232 39.23H31.93V32.606ZM31.93 52.984H18.13C17.302 52.984 16.796 52.202 16.796 51.236C16.796 50.224 17.302 49.58 18.13 49.58H31.93V45.348C31.93 44.474 32.62 43.968 33.724 43.968C34.828 43.968 35.518 44.474 35.518 45.348V49.58H49.824C50.606 49.58 51.112 50.27 51.112 51.236C51.112 52.202 50.606 52.984 49.824 52.984H35.518V60.62H53.688C54.516 60.62 54.976 61.402 54.976 62.368C54.976 63.38 54.516 64.116 53.688 64.116H14.22C13.392 64.116 12.932 63.38 12.932 62.368C12.932 61.356 13.392 60.62 14.22 60.62H31.93V52.984Z" fill="#2D3748"/>
<defs>
<filter id="filter0_d_4_173" x="0.142822" y="0.241058" width="71.7144" height="87.7589" filterUnits="userSpaceOnUse" color-interpolation-filters="sRGB">
<feFlood flood-opacity="0" result="BackgroundImageFix"/>
<feColorMatrix in="SourceAlpha" type="matrix" values="0 0 0 0 0 0 0 0 0 0 0 0 0 0 0 0 0 0 127 0" result="hardAlpha"/>
<feOffset dx="2" dy="2"/>
<feGaussianBlur stdDeviation="2"/>
<feComposite in2="hardAlpha" operator="out"/>
<feColorMatrix type="matrix" values="0 0 0 0 0 0 0 0 0 0 0 0 0 0 0 0 0 0 0.25 0"/>
<feBlend mode="normal" in2="BackgroundImageFix" result="effect1_dropShadow_4_173"/>
<feBlend mode="normal" in="SourceGraphic" in2="effect1_dropShadow_4_173" result="shape"/>
</filter>
</defs>
</svg>
