<svg width="50" height="50" viewBox="0 0 72 88" fill="none" xmlns="http://www.w3.org/2000/svg">
<g filter="url(#filter0_d_4_170)">
<path d="M6.49304 17.0007C6.54165 16.2975 6.95685 15.6718 7.58592 15.3538L33.0976 2.45619C33.665 2.16935 34.335 2.16935 34.9024 2.45619L60.4141 15.3538C61.0432 15.6718 61.4584 16.2975 61.507 17.0007L65.8522 79.8621C65.9321 81.0182 65.0158 82 63.857 82H4.14302C2.98415 82 2.06787 81.0182 2.14778 79.8621L6.49304 17.0007Z" fill="#F6AD54"/>
</g>
<path d="M29.906 32.376H15.048C14.174 32.376 13.714 31.64 13.714 30.674C13.714 29.708 14.174 29.11 15.048 29.11H32.114V24.694C32.114 23.82 32.85 23.36 33.816 23.36C34.874 23.36 35.518 23.82 35.518 24.694V29.11H53.136C53.964 29.11 54.47 29.708 54.47 30.674C54.47 31.64 53.964 32.376 53.136 32.376H37.68C41.728 36.93 48.582 41.162 54.24 43.186C54.976 43.416 55.436 43.968 55.436 44.658C55.436 44.888 55.39 45.164 55.298 45.44C55.022 46.222 54.424 46.682 53.688 46.682C53.412 46.682 53.182 46.636 52.906 46.544C46.328 44.014 39.06 38.724 35.012 33.434C35.334 35.044 35.518 36.792 35.518 38.218V44.152C35.518 44.934 34.874 45.44 33.816 45.44C32.804 45.44 32.114 44.934 32.114 44.152V38.218C32.114 36.792 32.298 35.09 32.574 33.48C29.124 38.402 21.948 43.784 15.37 46.59C15.048 46.728 14.772 46.774 14.496 46.774C13.806 46.774 13.254 46.406 12.932 45.67C12.794 45.348 12.748 45.072 12.748 44.796C12.748 44.152 13.116 43.646 13.898 43.37C19.648 41.116 26.134 36.746 29.906 32.376ZM23.282 47.188H44.718C47.524 47.188 48.812 48.338 48.812 51.098V60.666C48.812 63.426 47.524 64.576 44.718 64.576H23.282C20.476 64.576 19.234 63.426 19.234 60.666V51.098C19.234 48.338 20.476 47.188 23.282 47.188ZM24.248 61.264H43.798C44.764 61.264 45.224 61.034 45.224 60.068V51.696C45.224 50.73 44.764 50.5 43.798 50.5H24.248C23.282 50.5 22.822 50.73 22.822 51.696V60.068C22.822 61.034 23.282 61.264 24.248 61.264Z" fill="#2D3748"/>
<defs>
<filter id="filter0_d_4_170" x="0.142822" y="0.241058" width="71.7144" height="87.7589" filterUnits="userSpaceOnUse" color-interpolation-filters="sRGB">
<feFlood flood-opacity="0" result="BackgroundImageFix"/>
<feColorMatrix in="SourceAlpha" type="matrix" values="0 0 0 0 0 0 0 0 0 0 0 0 0 0 0 0 0 0 127 0" result="hardAlpha"/>
<feOffset dx="2" dy="2"/>
<feGaussianBlur stdDeviation="2"/>
<feComposite in2="hardAlpha" operator="out"/>
<feColorMatrix type="matrix" values="0 0 0 0 0 0 0 0 0 0 0 0 0 0 0 0 0 0 0.25 0"/>
<feBlend mode="normal" in2="BackgroundImageFix" result="effect1_dropShadow_4_170"/>
<feBlend mode="normal" in="SourceGraphic" in2="effect1_dropShadow_4_170" result="shape"/>
</filter>
</defs>
</svg>
