<svg width="50" height="50" viewBox="0 0 72 88" fill="none" xmlns="http://www.w3.org/2000/svg">
<g filter="url(#filter0_d_4_188)">
<path d="M6.49304 17.0007C6.54165 16.2975 6.95685 15.6718 7.58592 15.3538L33.0976 2.45619C33.665 2.16935 34.335 2.16935 34.9024 2.45619L60.4141 15.3538C61.0432 15.6718 61.4584 16.2975 61.507 17.0007L65.8522 79.8621C65.9321 81.0182 65.0158 82 63.857 82H4.14302C2.98415 82 2.06787 81.0182 2.14778 79.8621L6.49304 17.0007Z" fill="#F6AD54"/>
</g>
<path d="M31.378 29.708H16.152C15.278 29.708 14.818 28.788 14.818 27.914C14.818 26.994 15.278 26.166 16.152 26.166H51.848C52.722 26.166 53.182 26.994 53.182 27.914C53.182 28.788 52.722 29.708 51.848 29.708H35.242V41.806H49.088C49.962 41.806 50.376 42.634 50.376 43.554C50.376 44.474 49.962 45.302 49.088 45.302H35.242V59.378H53.504C54.424 59.378 54.838 60.252 54.838 61.126C54.838 62.046 54.424 62.92 53.504 62.92H14.45C13.576 62.92 13.116 62.046 13.116 61.126C13.116 60.252 13.576 59.378 14.45 59.378H31.378V45.302H18.866C17.946 45.302 17.532 44.474 17.532 43.554C17.532 42.634 17.946 41.806 18.866 41.806H31.378V29.708Z" fill="#2D3748"/>
<defs>
<filter id="filter0_d_4_188" x="0.142822" y="0.241058" width="71.7144" height="87.7589" filterUnits="userSpaceOnUse" color-interpolation-filters="sRGB">
<feFlood flood-opacity="0" result="BackgroundImageFix"/>
<feColorMatrix in="SourceAlpha" type="matrix" values="0 0 0 0 0 0 0 0 0 0 0 0 0 0 0 0 0 0 127 0" result="hardAlpha"/>
<feOffset dx="2" dy="2"/>
<feGaussianBlur stdDeviation="2"/>
<feComposite in2="hardAlpha" operator="out"/>
<feColorMatrix type="matrix" values="0 0 0 0 0 0 0 0 0 0 0 0 0 0 0 0 0 0 0.25 0"/>
<feBlend mode="normal" in2="BackgroundImageFix" result="effect1_dropShadow_4_188"/>
<feBlend mode="normal" in="SourceGraphic" in2="effect1_dropShadow_4_188" result="shape"/>
</filter>
</defs>
</svg>
