<svg width="50" height="50" viewBox="0 0 72 88" fill="none" xmlns="http://www.w3.org/2000/svg">
<g filter="url(#filter0_d_4_185)">
<path d="M6.49304 17.0007C6.54165 16.2975 6.95685 15.6718 7.58592 15.3538L33.0976 2.45619C33.665 2.16935 34.335 2.16935 34.9024 2.45619L60.4141 15.3538C61.0432 15.6718 61.4584 16.2975 61.507 17.0007L65.8522 79.8621C65.9321 81.0182 65.0158 82 63.857 82H4.14302C2.98415 82 2.06787 81.0182 2.14778 79.8621L6.49304 17.0007Z" fill="#F6AD54"/>
</g>
<path d="M31.562 58.136H21.672C18.728 58.136 17.486 57.032 17.486 54.41V44.382C17.486 41.76 18.728 40.656 21.672 40.656H45.868C48.766 40.656 50.008 41.76 50.008 44.382V54.41C50.008 57.032 48.766 58.136 45.868 58.136H35.012V59.608C35.012 61.264 35.334 61.586 41.82 61.632C42.326 61.632 42.786 61.632 43.246 61.632C48.26 61.632 49.502 61.402 50.652 60.712C51.388 60.298 51.664 58.78 51.802 57.538C51.894 56.756 52.446 56.204 53.366 56.204C53.458 56.204 53.504 56.204 53.596 56.204C54.654 56.296 55.252 56.802 55.252 57.768C55.252 57.814 55.252 57.814 55.252 57.86C55.16 60.16 54.654 61.954 53.596 62.966C52.124 64.392 50.284 64.852 41.958 64.852C37.634 64.852 35.012 64.714 33.54 64.024C32.16 63.38 31.562 62.368 31.562 60.436V58.136ZM31.562 43.692H22.224C21.304 43.692 20.89 43.922 20.89 44.888V47.878H31.562V43.692ZM35.012 43.692V47.878H46.604V44.888C46.604 43.922 46.144 43.692 45.224 43.692H35.012ZM31.562 50.822H20.89V53.858C20.89 54.824 21.304 55.1 22.224 55.1H31.562V50.822ZM35.012 50.822V55.1H45.224C46.144 55.1 46.604 54.824 46.604 53.858V50.822H35.012ZM42.28 34.722H53.688C54.516 34.722 54.93 35.412 54.93 36.286C54.93 37.16 54.516 37.758 53.688 37.758H14.358C13.53 37.758 13.07 37.16 13.07 36.286C13.07 35.412 13.53 34.722 14.358 34.722H25.214C24.662 33.112 23.972 31.502 23.236 29.938H17.486C16.704 29.938 16.244 29.294 16.244 28.42C16.244 27.592 16.704 26.902 17.486 26.902H31.976V24.326C31.976 23.36 32.712 22.992 33.724 22.992C34.736 22.992 35.564 23.36 35.564 24.326V26.902H50.56C51.342 26.902 51.802 27.546 51.802 28.42C51.802 29.294 51.342 29.938 50.56 29.938H44.626C43.982 31.594 43.2 33.158 42.28 34.722ZM28.848 34.722H38.692C39.566 33.204 40.348 31.594 40.946 29.938H26.824C27.606 31.502 28.204 33.112 28.848 34.722Z" fill="#2D3748"/>
<defs>
<filter id="filter0_d_4_185" x="0.142822" y="0.241058" width="71.7144" height="87.7589" filterUnits="userSpaceOnUse" color-interpolation-filters="sRGB">
<feFlood flood-opacity="0" result="BackgroundImageFix"/>
<feColorMatrix in="SourceAlpha" type="matrix" values="0 0 0 0 0 0 0 0 0 0 0 0 0 0 0 0 0 0 127 0" result="hardAlpha"/>
<feOffset dx="2" dy="2"/>
<feGaussianBlur stdDeviation="2"/>
<feComposite in2="hardAlpha" operator="out"/>
<feColorMatrix type="matrix" values="0 0 0 0 0 0 0 0 0 0 0 0 0 0 0 0 0 0 0.25 0"/>
<feBlend mode="normal" in2="BackgroundImageFix" result="effect1_dropShadow_4_185"/>
<feBlend mode="normal" in="SourceGraphic" in2="effect1_dropShadow_4_185" result="shape"/>
</filter>
</defs>
</svg>
