<svg width="50" height="50" viewBox="0 0 72 88" fill="none" xmlns="http://www.w3.org/2000/svg">
<g filter="url(#filter0_d_4_167)">
<path d="M6.49304 17.0007C6.54165 16.2975 6.95685 15.6718 7.58592 15.3538L33.0976 2.45619C33.665 2.16935 34.335 2.16935 34.9024 2.45619L60.4141 15.3538C61.0432 15.6718 61.4584 16.2975 61.507 17.0007L65.8522 79.8621C65.9321 81.0182 65.0158 82 63.857 82H4.14302C2.98415 82 2.06787 81.0182 2.14778 79.8621L6.49304 17.0007Z" fill="#F6AD54"/>
</g>
<path d="M31.838 38.908C36.392 36.976 41.774 35.136 45.868 34.078C46.144 34.032 46.374 33.986 46.604 33.986C47.524 33.986 48.122 34.446 48.398 35.366C48.444 35.596 48.49 35.826 48.49 36.056C48.49 36.884 47.984 37.574 46.926 37.85C42.142 39.046 35.61 41.162 30.734 43.37C24.754 46.084 21.626 49.534 21.626 52.892C21.626 56.894 24.57 58.918 34.322 58.918C38.83 58.918 43.89 58.412 47.386 57.676C47.57 57.63 47.754 57.63 47.938 57.63C48.95 57.63 49.64 58.228 49.778 59.286C49.824 59.47 49.824 59.608 49.824 59.792C49.824 60.758 49.18 61.54 48.076 61.77C44.534 62.552 39.52 62.874 34.138 62.874C22.868 62.92 17.67 59.792 17.67 52.846C17.67 48.2 21.534 43.692 28.158 40.472C26.778 36.332 25.674 31.548 24.8 26.902C24.754 26.764 24.754 26.626 24.754 26.488C24.754 25.476 25.49 24.878 26.41 24.694C26.594 24.648 26.732 24.648 26.916 24.648C27.836 24.648 28.618 25.154 28.756 26.212C29.538 30.582 30.504 35.044 31.838 38.908Z" fill="#2D3748"/>
<defs>
<filter id="filter0_d_4_167" x="0.142822" y="0.241058" width="71.7144" height="87.7589" filterUnits="userSpaceOnUse" color-interpolation-filters="sRGB">
<feFlood flood-opacity="0" result="BackgroundImageFix"/>
<feColorMatrix in="SourceAlpha" type="matrix" values="0 0 0 0 0 0 0 0 0 0 0 0 0 0 0 0 0 0 127 0" result="hardAlpha"/>
<feOffset dx="2" dy="2"/>
<feGaussianBlur stdDeviation="2"/>
<feComposite in2="hardAlpha" operator="out"/>
<feColorMatrix type="matrix" values="0 0 0 0 0 0 0 0 0 0 0 0 0 0 0 0 0 0 0.25 0"/>
<feBlend mode="normal" in2="BackgroundImageFix" result="effect1_dropShadow_4_167"/>
<feBlend mode="normal" in="SourceGraphic" in2="effect1_dropShadow_4_167" result="shape"/>
</filter>
</defs>
</svg>
