<svg width="50" height="50" viewBox="0 0 72 88" fill="none" xmlns="http://www.w3.org/2000/svg">
<g filter="url(#filter0_d_4_182)">
<path d="M6.49304 17.0007C6.54165 16.2975 6.95685 15.6718 7.58592 15.3538L33.0976 2.45619C33.665 2.16935 34.335 2.16935 34.9024 2.45619L60.4141 15.3538C61.0432 15.6718 61.4584 16.2975 61.507 17.0007L65.8522 79.8621C65.9321 81.0182 65.0158 82 63.857 82H4.14302C2.98415 82 2.06787 81.0182 2.14778 79.8621L6.49304 17.0007Z" fill="#F6AD54"/>
</g>
<path d="M36.346 47.418H49.18C52.032 47.418 53.274 48.752 53.274 51.282C53.274 51.42 53.274 51.558 53.274 51.696C53.09 55.376 52.492 59.378 51.572 61.908C50.698 64.438 49.042 65.588 46.282 65.588C44.718 65.588 42.97 65.45 41.544 65.128C40.946 64.99 40.532 64.392 40.532 63.656C40.532 63.472 40.532 63.288 40.578 63.104C40.762 62.184 41.314 61.77 41.912 61.77C42.004 61.77 42.096 61.77 42.188 61.816C43.246 62.092 44.488 62.276 45.684 62.276C47.248 62.276 47.984 61.678 48.444 60.436C49.18 58.366 49.686 54.962 49.778 52.202C49.778 52.11 49.778 52.064 49.778 51.972C49.778 50.868 49.41 50.5 48.122 50.5H21.764C19.28 50.5 17.946 49.396 17.946 46.958V28.65C17.946 26.212 19.28 25.108 21.764 25.108H50.33C51.158 25.108 51.572 25.752 51.572 26.672C51.572 27.592 51.158 28.282 50.33 28.282H36.346V32.652H48.214C49.042 32.836 49.41 33.296 49.41 34.216C49.41 34.998 49.042 35.734 48.214 35.734H36.346V39.828H48.168C48.996 39.828 49.364 40.472 49.364 41.392C49.364 42.174 48.996 42.91 48.168 42.91H36.346V47.418ZM21.35 32.652H33.034V28.282H22.638C21.764 28.282 21.35 28.512 21.35 29.432V32.652ZM21.35 35.734V39.828H33.034V35.734H21.35ZM21.35 42.91V46.314C21.35 47.188 21.764 47.418 22.638 47.418H33.034V42.91H21.35ZM20.016 52.708C20.66 52.984 21.028 53.49 21.028 54.088C21.028 54.226 21.028 54.41 20.982 54.548C20.016 57.722 18.038 61.448 16.336 63.748C15.968 64.254 15.416 64.53 14.864 64.53C14.496 64.53 14.128 64.438 13.806 64.208C13.254 63.84 12.932 63.288 12.932 62.736C12.932 62.414 13.07 62.046 13.3 61.724C14.91 59.7 16.75 56.158 17.624 53.628C17.9 52.892 18.452 52.524 19.142 52.524C19.418 52.524 19.694 52.57 20.016 52.708ZM25.996 53.03C26.18 52.984 26.364 52.984 26.548 52.984C27.284 52.984 27.79 53.398 27.974 54.134C28.526 56.204 29.078 59.424 29.216 61.908C29.216 61.954 29.216 62 29.216 62.046C29.216 62.92 28.802 63.426 27.652 63.564C27.514 63.564 27.376 63.564 27.284 63.564C26.272 63.564 25.766 63.058 25.674 62.092C25.536 59.93 25.122 57.078 24.662 54.732C24.616 54.594 24.616 54.502 24.616 54.41C24.616 53.628 25.168 53.214 25.996 53.03ZM33.448 52.8C33.678 52.754 33.908 52.708 34.092 52.708C34.69 52.708 35.104 52.984 35.426 53.582C36.392 55.514 37.404 58.136 37.91 60.16C37.91 60.252 37.91 60.344 37.91 60.436C37.91 61.126 37.542 61.724 36.714 61.954C36.484 62 36.3 62.046 36.07 62.046C35.426 62.046 34.828 61.724 34.644 61.034C34.092 58.964 33.218 56.434 32.436 54.594C32.39 54.41 32.344 54.226 32.344 54.088C32.344 53.444 32.85 52.984 33.448 52.8ZM40.854 52.478C41.13 52.34 41.406 52.248 41.682 52.248C42.142 52.248 42.556 52.478 42.878 52.938C43.936 54.456 44.948 56.342 45.546 57.906C45.592 58.09 45.638 58.274 45.638 58.458C45.638 59.056 45.224 59.562 44.672 59.792C44.396 59.93 44.12 59.976 43.798 59.976C43.292 59.976 42.74 59.746 42.51 59.148C41.912 57.676 40.992 55.836 40.164 54.272C40.026 54.088 39.98 53.858 39.98 53.674C39.98 53.168 40.348 52.754 40.854 52.478Z" fill="#2D3748"/>
<defs>
<filter id="filter0_d_4_182" x="0.142822" y="0.241058" width="71.7144" height="87.7589" filterUnits="userSpaceOnUse" color-interpolation-filters="sRGB">
<feFlood flood-opacity="0" result="BackgroundImageFix"/>
<feColorMatrix in="SourceAlpha" type="matrix" values="0 0 0 0 0 0 0 0 0 0 0 0 0 0 0 0 0 0 127 0" result="hardAlpha"/>
<feOffset dx="2" dy="2"/>
<feGaussianBlur stdDeviation="2"/>
<feComposite in2="hardAlpha" operator="out"/>
<feColorMatrix type="matrix" values="0 0 0 0 0 0 0 0 0 0 0 0 0 0 0 0 0 0 0.25 0"/>
<feBlend mode="normal" in2="BackgroundImageFix" result="effect1_dropShadow_4_182"/>
<feBlend mode="normal" in="SourceGraphic" in2="effect1_dropShadow_4_182" result="shape"/>
</filter>
</defs>
</svg>
