<?xml version="1.0" encoding="UTF-8" standalone="no"?>
<svg
   version="1.2"
   width="50"
   height="50"
   viewBox="0 0 510.91042 623.09375"
   preserveAspectRatio="xMidYMid"
   fill-rule="evenodd"
   stroke-width="28.222"
   stroke-linejoin="round"
   xml:space="preserve"
   id="svg17"
   sodipodi:docname="1GI.svg"
   inkscape:version="1.3.2 (091e20e, 2023-11-25, custom)"
   xmlns:inkscape="http://www.inkscape.org/namespaces/inkscape"
   xmlns:sodipodi="http://sodipodi.sourceforge.net/DTD/sodipodi-0.dtd"
   xmlns="http://www.w3.org/2000/svg"
   xmlns:svg="http://www.w3.org/2000/svg"
   xmlns:ooo="http://xml.openoffice.org/svg/export"><sodipodi:namedview
   id="namedview17"
   pagecolor="#ffffff"
   bordercolor="#000000"
   borderopacity="0.25"
   inkscape:showpageshadow="2"
   inkscape:pageopacity="0.0"
   inkscape:pagecheckerboard="0"
   inkscape:deskcolor="#d1d1d1"
   inkscape:document-units="mm"
   inkscape:zoom="3.0625344"
   inkscape:cx="9.9590718"
   inkscape:cy="41.958712"
   inkscape:window-width="1920"
   inkscape:window-height="1009"
   inkscape:window-x="1912"
   inkscape:window-y="50"
   inkscape:window-maximized="1"
   inkscape:current-layer="svg17" />
 <defs
   class="ClipPathGroup"
   id="defs2">
  <clipPath
   id="presentation_clip_path"
   clipPathUnits="userSpaceOnUse">
   <rect
   x="0"
   y="0"
   width="1931"
   height="2355"
   id="rect1" />
  </clipPath>
  <clipPath
   id="presentation_clip_path_shrink"
   clipPathUnits="userSpaceOnUse">
   <rect
   x="1"
   y="2"
   width="1928"
   height="2351"
   id="rect2" />
  </clipPath>
 </defs>
 <defs
   class="TextShapeIndex"
   id="defs3">
  <g
   ooo:slide="id1"
   ooo:id-list="id3"
   id="g2" />
 </defs>
 <defs
   class="EmbeddedBulletChars"
   id="defs12">
  <g
   id="bullet-char-template-57356"
   transform="matrix(4.8828125e-4,0,0,-4.8828125e-4,0,0)">
   <path
   d="M 580,1141 1163,571 580,0 -4,571 Z"
   id="path3" />
  </g>
  <g
   id="bullet-char-template-57354"
   transform="matrix(4.8828125e-4,0,0,-4.8828125e-4,0,0)">
   <path
   d="M 8,1128 H 1137 V 0 H 8 Z"
   id="path4" />
  </g>
  <g
   id="bullet-char-template-10146"
   transform="matrix(4.8828125e-4,0,0,-4.8828125e-4,0,0)">
   <path
   d="M 174,0 602,739 174,1481 1456,739 Z M 1358,739 309,1346 659,739 Z"
   id="path5" />
  </g>
  <g
   id="bullet-char-template-10132"
   transform="matrix(4.8828125e-4,0,0,-4.8828125e-4,0,0)">
   <path
   d="M 2015,739 1276,0 H 717 l 543,543 H 174 v 393 h 1086 l -543,545 h 557 z"
   id="path6" />
  </g>
  <g
   id="bullet-char-template-10007"
   transform="matrix(4.8828125e-4,0,0,-4.8828125e-4,0,0)">
   <path
   d="m 0,-2 c -7,16 -16,29 -25,39 l 381,530 c -94,256 -141,385 -141,387 0,25 13,38 40,38 9,0 21,-2 34,-5 21,4 42,12 65,25 l 27,-13 111,-251 280,301 64,-25 24,25 c 21,-10 41,-24 62,-43 C 886,937 835,863 770,784 769,783 710,716 594,584 L 774,223 c 0,-27 -21,-55 -63,-84 l 16,-20 C 717,90 699,76 672,76 641,76 570,178 457,381 L 164,-76 c -22,-34 -53,-51 -92,-51 -42,0 -63,17 -64,51 -7,9 -10,24 -10,44 0,9 1,19 2,30 z"
   id="path7" />
  </g>
  <g
   id="bullet-char-template-10004"
   transform="matrix(4.8828125e-4,0,0,-4.8828125e-4,0,0)">
   <path
   d="M 285,-33 C 182,-33 111,30 74,156 52,228 41,333 41,471 c 0,78 14,145 41,201 34,71 87,106 158,106 53,0 88,-31 106,-94 l 23,-176 c 8,-64 28,-97 59,-98 l 735,706 c 11,11 33,17 66,17 42,0 63,-15 63,-46 V 965 c 0,-36 -10,-64 -30,-84 L 442,47 C 390,-6 338,-33 285,-33 Z"
   id="path8" />
  </g>
  <g
   id="bullet-char-template-9679"
   transform="matrix(4.8828125e-4,0,0,-4.8828125e-4,0,0)">
   <path
   d="M 813,0 C 632,0 489,54 383,161 276,268 223,411 223,592 c 0,181 53,324 160,431 106,107 249,161 430,161 179,0 323,-54 432,-161 108,-107 162,-251 162,-431 0,-180 -54,-324 -162,-431 C 1136,54 992,0 813,0 Z"
   id="path9" />
  </g>
  <g
   id="bullet-char-template-8226"
   transform="matrix(4.8828125e-4,0,0,-4.8828125e-4,0,0)">
   <path
   d="m 346,457 c -73,0 -137,26 -191,78 -54,51 -81,114 -81,188 0,73 27,136 81,188 54,52 118,78 191,78 73,0 134,-26 185,-79 51,-51 77,-114 77,-187 0,-75 -25,-137 -76,-188 -50,-52 -112,-78 -186,-78 z"
   id="path10" />
  </g>
  <g
   id="bullet-char-template-8211"
   transform="matrix(4.8828125e-4,0,0,-4.8828125e-4,0,0)">
   <path
   d="M -4,459 H 1135 V 606 H -4 Z"
   id="path11" />
  </g>
  <g
   id="bullet-char-template-61548"
   transform="matrix(4.8828125e-4,0,0,-4.8828125e-4,0,0)">
   <path
   d="m 173,740 c 0,163 58,303 173,419 116,115 255,173 419,173 163,0 302,-58 418,-173 116,-116 174,-256 174,-419 0,-163 -58,-303 -174,-418 C 1067,206 928,148 765,148 601,148 462,206 346,322 231,437 173,577 173,740 Z"
   id="path12" />
  </g>
 </defs>
 <g
   id="g12">
  <g
   id="id2"
   class="Master_Slide">
   <g
   id="bg-id2"
   class="Background" />
   <g
   id="bo-id2"
   class="BackgroundObjects" />
  </g>
 </g>
 <g
   class="SlideGroup"
   id="g17"
   transform="matrix(0.26296428,0,0,0.26458333,-21.260724,0)">
  <g
   id="g16">
   <g
   id="container-id1">
    <g
   id="id1"
   class="Slide"
   clip-path="url(#presentation_clip_path)">
     <g
   class="Page"
   id="g15">
      <g
   class="Graphic"
   id="g14">
       <g
   id="id3">
        <rect
   class="BoundingBox"
   stroke="none"
   fill="none"
   x="0"
   y="0"
   width="1931"
   height="2355"
   id="rect12" />
        <path
   fill="#f6ad54"
   stroke="none"
   d="m 1745,1891 c -1,19 -12,35 -29,44 l -674,341 c -15,7 -33,7 -48,0 L 320,1935 c -17,-9 -28,-25 -29,-44 L 176,228 c -2,-30 22,-56 53,-56 h 1578 c 31,0 55,26 53,56 z"
   id="path13" />
        <path
   fill="#2d3748"
   stroke="none"
   d="M 842,1139 H 961 V 751 c -59,16 -116,35 -161,52 -7,3 -13,4 -18,4 -16,0 -27,-8 -33,-26 -4,-6 -5,-13 -5,-19 0,-17 10,-32 27,-38 96,-38 242,-81 350,-105 5,-1 10,-1 14,-1 22,0 35,14 40,35 1,5 1,10 1,15 0,22 -13,38 -34,40 -29,5 -61,12 -93,20 v 859 c 0,68 -32,95 -107,95 H 621 c -74,0 -107,-27 -107,-95 v -352 c 0,-69 33,-96 109,-96 h 135 c -9,-60 -27,-121 -54,-174 -58,39 -123,91 -165,140 -10,8 -20,13 -31,13 -11,0 -20,-3 -29,-12 -10,-10 -14,-21 -14,-33 0,-11 3,-22 12,-29 C 524,993 601,936 664,893 614,819 548,759 466,706 c -15,-10 -22,-26 -22,-43 0,-10 2,-18 7,-27 10,-13 24,-20 39,-20 10,0 21,3 29,9 162,106 287,280 323,514 z m 119,310 H 603 v 117 c 0,26 14,32 40,32 h 279 c 25,0 39,-6 39,-32 z m 0,-81 V 1219 H 643 c -26,0 -40,8 -40,32 v 117 z m 322,-229 V 789 c -47,12 -92,25 -131,38 -5,2 -10,3 -15,3 -16,0 -27,-9 -32,-28 -1,-5 -1,-9 -1,-13 0,-19 9,-30 32,-38 112,-40 269,-82 394,-106 4,-1 6,-1 10,-1 19,0 34,13 37,39 2,3 2,7 2,11 0,20 -11,32 -33,36 -54,9 -117,22 -180,38 v 371 h 172 c 21,0 32,16 32,39 0,23 -11,39 -32,39 h -172 v 120 h 74 c 21,0 32,18 32,40 0,22 -11,38 -32,38 h -256 c -19,0 -30,-15 -30,-38 0,-22 11,-40 30,-40 h 99 v -120 h -157 c -21,0 -32,-16 -32,-39 0,-23 11,-39 32,-39 z m 240,-63 c -5,1 -10,2 -15,2 -17,0 -32,-8 -39,-28 -21,-53 -41,-123 -53,-182 -2,-5 -2,-9 -2,-13 0,-19 13,-31 30,-36 4,-1 9,-3 14,-3 17,0 32,10 37,33 12,55 31,126 53,179 1,5 3,9 3,14 0,15 -11,29 -28,34 z M 1161,877 c 8,-18 21,-28 37,-28 5,0 10,2 16,4 14,6 22,16 22,29 0,6 -2,14 -5,22 -16,41 -34,100 -45,152 -5,18 -19,27 -34,27 -4,0 -9,0 -13,-1 -18,-4 -30,-17 -30,-34 0,-4 0,-6 1,-10 12,-55 31,-112 51,-161 z m 96,807 c -49,-68 -108,-130 -159,-170 -11,-10 -17,-23 -17,-36 0,-11 4,-22 11,-30 7,-10 21,-15 33,-15 12,0 24,4 34,13 46,38 105,104 141,156 5,9 10,13 15,13 4,0 8,-4 13,-11 56,-85 114,-152 189,-216 8,-7 18,-11 27,-11 16,0 31,9 39,20 6,7 9,17 9,25 0,14 -6,26 -16,34 -80,61 -146,137 -202,228 -13,21 -35,32 -57,32 -22,0 -45,-11 -60,-32 z"
   id="path14" />
       </g>
      </g>
     </g>
    </g>
   </g>
  </g>
 </g>
</svg>
