<?xml version="1.0" encoding="UTF-8" standalone="no"?>
<svg
   version="1.2"
   width="50"
   height="50"
   viewBox="0 0 1322.9167 1322.9167"
   preserveAspectRatio="xMidYMid"
   fill-rule="evenodd"
   stroke-width="28.222"
   stroke-linejoin="round"
   xml:space="preserve"
   id="svg17"
   sodipodi:docname="1HI.svg"
   inkscape:version="1.3.2 (091e20e, 2023-11-25, custom)"
   xmlns:inkscape="http://www.inkscape.org/namespaces/inkscape"
   xmlns:sodipodi="http://sodipodi.sourceforge.net/DTD/sodipodi-0.dtd"
   xmlns="http://www.w3.org/2000/svg"
   xmlns:svg="http://www.w3.org/2000/svg"
   xmlns:ooo="http://xml.openoffice.org/svg/export"><sodipodi:namedview
   id="namedview17"
   pagecolor="#ffffff"
   bordercolor="#000000"
   borderopacity="0.25"
   inkscape:showpageshadow="2"
   inkscape:pageopacity="0.0"
   inkscape:pagecheckerboard="0"
   inkscape:deskcolor="#d1d1d1"
   inkscape:document-units="mm"
   inkscape:zoom="8.6621553"
   inkscape:cx="11.602193"
   inkscape:cy="21.530438"
   inkscape:window-width="1920"
   inkscape:window-height="1009"
   inkscape:window-x="1912"
   inkscape:window-y="50"
   inkscape:window-maximized="1"
   inkscape:current-layer="svg17" />
 <defs
   class="ClipPathGroup"
   id="defs2">
  <clipPath
   id="presentation_clip_path"
   clipPathUnits="userSpaceOnUse">
   <rect
   x="0"
   y="0"
   width="1931"
   height="2355"
   id="rect1" />
  </clipPath>
  <clipPath
   id="presentation_clip_path_shrink"
   clipPathUnits="userSpaceOnUse">
   <rect
   x="1"
   y="2"
   width="1928"
   height="2351"
   id="rect2" />
  </clipPath>
 </defs>
 <defs
   class="TextShapeIndex"
   id="defs3">
  <g
   ooo:slide="id1"
   ooo:id-list="id3"
   id="g2" />
 </defs>
 <defs
   class="EmbeddedBulletChars"
   id="defs12">
  <g
   id="bullet-char-template-57356"
   transform="matrix(4.8828125e-4,0,0,-4.8828125e-4,0,0)">
   <path
   d="M 580,1141 1163,571 580,0 -4,571 Z"
   id="path3" />
  </g>
  <g
   id="bullet-char-template-57354"
   transform="matrix(4.8828125e-4,0,0,-4.8828125e-4,0,0)">
   <path
   d="M 8,1128 H 1137 V 0 H 8 Z"
   id="path4" />
  </g>
  <g
   id="bullet-char-template-10146"
   transform="matrix(4.8828125e-4,0,0,-4.8828125e-4,0,0)">
   <path
   d="M 174,0 602,739 174,1481 1456,739 Z M 1358,739 309,1346 659,739 Z"
   id="path5" />
  </g>
  <g
   id="bullet-char-template-10132"
   transform="matrix(4.8828125e-4,0,0,-4.8828125e-4,0,0)">
   <path
   d="M 2015,739 1276,0 H 717 l 543,543 H 174 v 393 h 1086 l -543,545 h 557 z"
   id="path6" />
  </g>
  <g
   id="bullet-char-template-10007"
   transform="matrix(4.8828125e-4,0,0,-4.8828125e-4,0,0)">
   <path
   d="m 0,-2 c -7,16 -16,29 -25,39 l 381,530 c -94,256 -141,385 -141,387 0,25 13,38 40,38 9,0 21,-2 34,-5 21,4 42,12 65,25 l 27,-13 111,-251 280,301 64,-25 24,25 c 21,-10 41,-24 62,-43 C 886,937 835,863 770,784 769,783 710,716 594,584 L 774,223 c 0,-27 -21,-55 -63,-84 l 16,-20 C 717,90 699,76 672,76 641,76 570,178 457,381 L 164,-76 c -22,-34 -53,-51 -92,-51 -42,0 -63,17 -64,51 -7,9 -10,24 -10,44 0,9 1,19 2,30 z"
   id="path7" />
  </g>
  <g
   id="bullet-char-template-10004"
   transform="matrix(4.8828125e-4,0,0,-4.8828125e-4,0,0)">
   <path
   d="M 285,-33 C 182,-33 111,30 74,156 52,228 41,333 41,471 c 0,78 14,145 41,201 34,71 87,106 158,106 53,0 88,-31 106,-94 l 23,-176 c 8,-64 28,-97 59,-98 l 735,706 c 11,11 33,17 66,17 42,0 63,-15 63,-46 V 965 c 0,-36 -10,-64 -30,-84 L 442,47 C 390,-6 338,-33 285,-33 Z"
   id="path8" />
  </g>
  <g
   id="bullet-char-template-9679"
   transform="matrix(4.8828125e-4,0,0,-4.8828125e-4,0,0)">
   <path
   d="M 813,0 C 632,0 489,54 383,161 276,268 223,411 223,592 c 0,181 53,324 160,431 106,107 249,161 430,161 179,0 323,-54 432,-161 108,-107 162,-251 162,-431 0,-180 -54,-324 -162,-431 C 1136,54 992,0 813,0 Z"
   id="path9" />
  </g>
  <g
   id="bullet-char-template-8226"
   transform="matrix(4.8828125e-4,0,0,-4.8828125e-4,0,0)">
   <path
   d="m 346,457 c -73,0 -137,26 -191,78 -54,51 -81,114 -81,188 0,73 27,136 81,188 54,52 118,78 191,78 73,0 134,-26 185,-79 51,-51 77,-114 77,-187 0,-75 -25,-137 -76,-188 -50,-52 -112,-78 -186,-78 z"
   id="path10" />
  </g>
  <g
   id="bullet-char-template-8211"
   transform="matrix(4.8828125e-4,0,0,-4.8828125e-4,0,0)">
   <path
   d="M -4,459 H 1135 V 606 H -4 Z"
   id="path11" />
  </g>
  <g
   id="bullet-char-template-61548"
   transform="matrix(4.8828125e-4,0,0,-4.8828125e-4,0,0)">
   <path
   d="m 173,740 c 0,163 58,303 173,419 116,115 255,173 419,173 163,0 302,-58 418,-173 116,-116 174,-256 174,-419 0,-163 -58,-303 -174,-418 C 1067,206 928,148 765,148 601,148 462,206 346,322 231,437 173,577 173,740 Z"
   id="path12" />
  </g>
 </defs>
 <g
   id="g12">
  <g
   id="id2"
   class="Master_Slide">
   <g
   id="bg-id2"
   class="Background" />
   <g
   id="bo-id2"
   class="BackgroundObjects" />
  </g>
 </g>
 <g
   class="SlideGroup"
   id="g17"
   transform="matrix(0.55831058,0,0,0.56174807,73.951044,0)">
  <g
   id="g16">
   <g
   id="container-id1">
    <g
   id="id1"
   class="Slide"
   clip-path="url(#presentation_clip_path)">
     <g
   class="Page"
   id="g15">
      <g
   class="Graphic"
   id="g14">
       <g
   id="id3">
        <rect
   class="BoundingBox"
   stroke="none"
   fill="none"
   x="0"
   y="0"
   width="1931"
   height="2355"
   id="rect12" />
        <path
   fill="#f6ad54"
   stroke="none"
   d="m 1745,1891 c -1,19 -12,35 -29,44 l -674,341 c -15,7 -33,7 -48,0 L 320,1935 c -17,-9 -28,-25 -29,-44 L 176,228 c -2,-30 22,-56 53,-56 h 1578 c 31,0 55,26 53,56 z"
   id="path13" />
        <path
   fill="#2d3748"
   stroke="none"
   d="m 1293,1237 h -183 v 292 c 0,22 -18,35 -45,35 -26,0 -45,-13 -45,-35 V 1237 H 866 c -60,0 -95,-29 -96,-90 -3,-148 -27,-250 -70,-323 -25,-46 -65,-88 -104,-108 -14,-7 -24,-10 -32,-10 -11,0 -18,6 -23,17 -6,16 -13,38 -17,59 -4,14 -16,21 -32,21 -3,0 -7,0 -10,-1 -24,-3 -33,-15 -33,-35 0,-3 0,-6 0,-9 5,-47 18,-88 46,-117 18,-19 41,-30 68,-30 19,0 43,6 66,18 54,26 108,77 143,135 51,85 82,209 85,354 2,25 8,33 37,33 h 126 V 634 c 0,-23 20,-37 45,-37 27,0 45,14 45,37 v 517 h 185 c 7,-126 23,-207 46,-277 32,-96 96,-196 155,-249 12,-12 25,-17 38,-17 12,0 25,5 35,16 11,9 16,21 16,32 0,12 -6,24 -19,36 -62,59 -114,134 -142,219 -21,61 -34,133 -40,240 h 179 c 20,0 33,21 33,44 0,23 -13,42 -33,42 h -183 c -1,25 -1,52 -1,80 v 83 c 43,-15 88,-30 131,-42 7,-1 11,-3 16,-3 20,0 32,13 38,33 1,5 1,9 1,12 0,20 -14,35 -33,39 -102,25 -217,71 -287,123 -8,6 -18,9 -28,9 -13,0 -26,-6 -35,-17 -6,-8 -10,-17 -10,-27 0,-12 6,-24 20,-32 30,-20 64,-40 100,-57 v -126 c 0,-27 0,-51 1,-75 z m 211,454 H 855 c -66,0 -105,-26 -105,-90 -2,-107 -14,-181 -53,-256 -27,-52 -65,-89 -100,-108 -11,-6 -19,-8 -27,-8 -8,0 -13,5 -19,15 -7,14 -14,35 -18,51 -5,8 -15,13 -28,13 -4,0 -9,0 -14,-1 -22,-6 -31,-18 -31,-35 0,-3 0,-7 1,-10 10,-43 22,-73 45,-99 16,-17 38,-25 62,-25 4,0 7,0 11,0 -5,-2 -9,-3 -14,-5 -12,-7 -19,-18 -19,-31 0,-7 2,-14 7,-21 25,-33 62,-72 95,-97 9,-7 18,-11 28,-11 11,0 22,5 31,16 6,8 8,16 8,23 0,11 -5,22 -16,32 -28,22 -61,55 -78,80 -8,11 -19,16 -31,16 12,3 25,7 37,14 56,27 108,74 140,133 48,92 68,179 70,279 1,28 8,39 40,39 h 627 c 21,0 33,19 33,44 0,23 -12,42 -33,42 z m -963,-20 c -12,-9 -18,-21 -18,-32 0,-7 2,-15 7,-22 27,-35 70,-77 104,-102 7,-5 14,-7 23,-7 12,0 25,6 34,17 6,7 8,14 8,23 0,9 -3,19 -12,25 -32,25 -70,65 -92,95 -6,9 -16,12 -27,12 -10,0 -20,-3 -27,-9 z m 67,-705 c -33,-17 -74,-45 -108,-73 -10,-7 -15,-18 -15,-28 0,-8 4,-17 10,-25 10,-10 21,-16 34,-16 8,0 18,3 28,10 28,20 66,48 101,70 11,6 16,16 16,27 0,7 -4,16 -10,22 -10,13 -23,19 -35,19 -8,0 -14,-2 -21,-6 z m 11,518 c -32,-15 -83,-46 -117,-75 -10,-9 -13,-18 -13,-29 0,-9 2,-18 8,-25 9,-12 22,-17 33,-17 10,0 20,4 27,10 28,25 69,50 107,72 11,6 16,17 16,28 0,7 -3,16 -9,22 -9,12 -20,19 -34,19 -6,0 -12,-1 -18,-5 z"
   id="path14" />
       </g>
      </g>
     </g>
    </g>
   </g>
  </g>
 </g>
</svg>
